<mxfile host="app.diagrams.net" agent="Mozilla/5.0 (Windows NT 10.0; Win64; x64) AppleWebKit/537.36 (KHTML, like Gecko) Chrome/129.0.0.0 Safari/537.36 Edg/129.0.0.0" version="24.8.3">
  <diagram name="第 1 页" id="ooUNaezoFtSdebI18aZi">
    <mxGraphModel dx="2189" dy="1982" grid="1" gridSize="10" guides="0" tooltips="1" connect="1" arrows="1" fold="1" page="0" pageScale="1" pageWidth="1600" pageHeight="900" background="none" math="0" shadow="0">
      <root>
        <mxCell id="0" />
        <mxCell id="1" parent="0" />
        <mxCell id="n8QdvBFhg09HrveP-W7Y-9" value="pc.v" style="rounded=0;whiteSpace=wrap;html=1;fontFamily=Lucida Console;" vertex="1" parent="1">
          <mxGeometry x="20" y="-370" width="80" height="80" as="geometry" />
        </mxCell>
        <mxCell id="FTkBiSrHJ2rmspxLcCRB-131" style="edgeStyle=orthogonalEdgeStyle;rounded=0;orthogonalLoop=1;jettySize=auto;html=1;exitX=1;exitY=0.75;exitDx=0;exitDy=0;entryX=0;entryY=0.25;entryDx=0;entryDy=0;fontFamily=Lucida Console;" parent="1" source="FTkBiSrHJ2rmspxLcCRB-127" target="FTkBiSrHJ2rmspxLcCRB-57" edge="1">
          <mxGeometry relative="1" as="geometry">
            <Array as="points">
              <mxPoint x="1120" y="-635" />
              <mxPoint x="1120" y="-160" />
            </Array>
          </mxGeometry>
        </mxCell>
        <mxCell id="FTkBiSrHJ2rmspxLcCRB-127" value="&lt;font&gt;npc&lt;/font&gt;" style="rounded=1;whiteSpace=wrap;html=1;container=1;labelPosition=center;verticalLabelPosition=top;align=center;verticalAlign=bottom;points=[[0,0,0,0,0],[0,0.5,0,0,-60],[0,0.5,0,0,0],[0,0.5,0,0,60],[0,1,0,0,0],[0.25,0,0,0,0],[0.5,0,0,0,0],[0.5,1,0,0,0],[0.5,1,0,160,0],[0.5,1,0,200,0],[0.75,0,0,0,0],[1,0,0,0,0],[1,0.25,0,0,0],[1,0.5,0,0,0],[1,0.75,0,0,0],[1,1,0,0,0]];fontFamily=Lucida Console;" parent="1" vertex="1">
          <mxGeometry x="440" y="-830" width="640" height="260" as="geometry">
            <mxRectangle x="460" y="-830" width="50" height="40" as="alternateBounds" />
          </mxGeometry>
        </mxCell>
        <mxCell id="FTkBiSrHJ2rmspxLcCRB-73" value="" style="group;fontFamily=Lucida Console;" parent="FTkBiSrHJ2rmspxLcCRB-127" vertex="1" connectable="0">
          <mxGeometry x="59.995161290322585" y="120" width="72.25806451612902" height="40" as="geometry" />
        </mxCell>
        <mxCell id="FTkBiSrHJ2rmspxLcCRB-69" value="+" style="rounded=0;whiteSpace=wrap;html=1;fontFamily=Lucida Console;" parent="FTkBiSrHJ2rmspxLcCRB-73" vertex="1">
          <mxGeometry x="30.967741935483872" width="41.29032258064516" height="40" as="geometry" />
        </mxCell>
        <mxCell id="FTkBiSrHJ2rmspxLcCRB-143" style="edgeStyle=orthogonalEdgeStyle;rounded=0;orthogonalLoop=1;jettySize=auto;html=1;exitX=1;exitY=0;exitDx=0;exitDy=0;entryX=0;entryY=0.75;entryDx=0;entryDy=0;fontFamily=Lucida Console;" parent="FTkBiSrHJ2rmspxLcCRB-73" source="FTkBiSrHJ2rmspxLcCRB-142" target="FTkBiSrHJ2rmspxLcCRB-69" edge="1">
          <mxGeometry relative="1" as="geometry" />
        </mxCell>
        <mxCell id="FTkBiSrHJ2rmspxLcCRB-142" value="&lt;font&gt;4&lt;/font&gt;" style="text;html=1;align=center;verticalAlign=bottom;whiteSpace=wrap;rounded=0;movable=1;resizable=1;rotatable=1;deletable=1;editable=1;locked=0;connectable=1;fontFamily=Lucida Console;" parent="FTkBiSrHJ2rmspxLcCRB-73" vertex="1">
          <mxGeometry y="30" width="10.32258064516129" height="10" as="geometry" />
        </mxCell>
        <mxCell id="FTkBiSrHJ2rmspxLcCRB-78" value="" style="group;fontFamily=Lucida Console;" parent="FTkBiSrHJ2rmspxLcCRB-127" vertex="1" connectable="0">
          <mxGeometry x="59.995161290322585" y="160" width="72.25806451612902" height="40" as="geometry" />
        </mxCell>
        <mxCell id="FTkBiSrHJ2rmspxLcCRB-79" value="&amp;lt;&amp;lt;" style="rounded=0;whiteSpace=wrap;html=1;fontFamily=Lucida Console;" parent="FTkBiSrHJ2rmspxLcCRB-78" vertex="1">
          <mxGeometry x="30.967741935483872" width="41.29032258064516" height="40" as="geometry" />
        </mxCell>
        <mxCell id="FTkBiSrHJ2rmspxLcCRB-80" style="edgeStyle=orthogonalEdgeStyle;rounded=0;orthogonalLoop=1;jettySize=auto;html=1;exitX=1;exitY=0;exitDx=0;exitDy=0;entryX=0;entryY=0.25;entryDx=0;entryDy=0;fontFamily=Lucida Console;" parent="FTkBiSrHJ2rmspxLcCRB-78" source="FTkBiSrHJ2rmspxLcCRB-81" target="FTkBiSrHJ2rmspxLcCRB-79" edge="1">
          <mxGeometry relative="1" as="geometry" />
        </mxCell>
        <mxCell id="FTkBiSrHJ2rmspxLcCRB-81" value="&lt;font&gt;2&lt;/font&gt;" style="text;html=1;align=center;verticalAlign=bottom;whiteSpace=wrap;rounded=0;movable=0;resizable=0;rotatable=0;deletable=0;editable=0;locked=1;connectable=0;" parent="FTkBiSrHJ2rmspxLcCRB-78" vertex="1">
          <mxGeometry y="10" width="10" height="10" as="geometry" />
        </mxCell>
        <mxCell id="FTkBiSrHJ2rmspxLcCRB-101" style="edgeStyle=orthogonalEdgeStyle;rounded=0;orthogonalLoop=1;jettySize=auto;html=1;exitX=1;exitY=0.5;exitDx=0;exitDy=0;entryX=0;entryY=0.6;entryDx=0;entryDy=0;fontFamily=Lucida Console;entryPerimeter=0;" parent="FTkBiSrHJ2rmspxLcCRB-127" source="FTkBiSrHJ2rmspxLcCRB-84" target="FTkBiSrHJ2rmspxLcCRB-104" edge="1">
          <mxGeometry relative="1" as="geometry">
            <Array as="points">
              <mxPoint x="400" y="170" />
              <mxPoint x="400" y="110" />
            </Array>
            <mxPoint x="320" y="160" as="targetPoint" />
          </mxGeometry>
        </mxCell>
        <mxCell id="n8QdvBFhg09HrveP-W7Y-12" value="bAddr" style="edgeLabel;html=1;align=center;verticalAlign=middle;resizable=0;points=[];fontFamily=Lucida Console;" vertex="1" connectable="0" parent="FTkBiSrHJ2rmspxLcCRB-101">
          <mxGeometry relative="1" as="geometry">
            <mxPoint as="offset" />
          </mxGeometry>
        </mxCell>
        <mxCell id="FTkBiSrHJ2rmspxLcCRB-84" value="+" style="rounded=0;whiteSpace=wrap;html=1;fontFamily=Lucida Console;" parent="FTkBiSrHJ2rmspxLcCRB-127" vertex="1">
          <mxGeometry x="199.99870967741936" y="150" width="41.29032258064516" height="40" as="geometry" />
        </mxCell>
        <mxCell id="FTkBiSrHJ2rmspxLcCRB-88" style="edgeStyle=orthogonalEdgeStyle;rounded=0;orthogonalLoop=1;jettySize=auto;html=1;exitX=1;exitY=0.5;exitDx=0;exitDy=0;entryX=0;entryY=0.75;entryDx=0;entryDy=0;fontFamily=Lucida Console;" parent="FTkBiSrHJ2rmspxLcCRB-127" source="FTkBiSrHJ2rmspxLcCRB-79" target="FTkBiSrHJ2rmspxLcCRB-84" edge="1">
          <mxGeometry relative="1" as="geometry" />
        </mxCell>
        <mxCell id="FTkBiSrHJ2rmspxLcCRB-96" value="" style="group;horizontal=1;fontFamily=Lucida Console;" parent="FTkBiSrHJ2rmspxLcCRB-127" vertex="1" connectable="0">
          <mxGeometry x="140.00064516129032" y="50" width="113.54838709677419" height="80" as="geometry" />
        </mxCell>
        <mxCell id="FTkBiSrHJ2rmspxLcCRB-94" style="edgeStyle=orthogonalEdgeStyle;rounded=0;orthogonalLoop=1;jettySize=auto;html=1;exitX=1;exitY=0;exitDx=0;exitDy=0;entryX=0;entryY=0.75;entryDx=0;entryDy=0;entryPerimeter=0;fontFamily=Lucida Console;" parent="FTkBiSrHJ2rmspxLcCRB-96" source="FTkBiSrHJ2rmspxLcCRB-93" target="FTkBiSrHJ2rmspxLcCRB-95" edge="1">
          <mxGeometry relative="1" as="geometry">
            <mxPoint x="92.90322580645162" y="90" as="targetPoint" />
            <Array as="points" />
          </mxGeometry>
        </mxCell>
        <mxCell id="FTkBiSrHJ2rmspxLcCRB-93" value="&lt;font&gt;2&#39;b00&lt;/font&gt;" style="text;html=1;align=center;verticalAlign=bottom;whiteSpace=wrap;rounded=0;movable=1;resizable=1;rotatable=1;deletable=1;editable=1;locked=0;connectable=1;fontFamily=Lucida Console;" parent="FTkBiSrHJ2rmspxLcCRB-96" vertex="1">
          <mxGeometry y="60" width="41.29032258064516" height="10" as="geometry" />
        </mxCell>
        <mxCell id="FTkBiSrHJ2rmspxLcCRB-95" value="jAddr" style="rounded=0;whiteSpace=wrap;html=1;fontFamily=Lucida Console;points=[[0,0,0,0,0],[0,0.25,0,0,0],[0,0.5,0,0,0],[0,0.75,0,0,0],[0,1,0,0,0],[0.25,0,0,0,0],[0.25,1,0,0,0],[0.5,0,0,0,0],[0.5,1,0,0,0],[0.75,0,0,0,0],[0.75,1,0,0,0],[1,0,0,0,0],[1,0.25,0,0,0],[1,0.5,0,0,0],[1,0.75,0,0,0],[1,1,0,0,0]];textDirection=vertical-lr;" parent="FTkBiSrHJ2rmspxLcCRB-96" vertex="1">
          <mxGeometry x="72.25806451612902" width="41.29032258064516" height="80" as="geometry" />
        </mxCell>
        <mxCell id="FTkBiSrHJ2rmspxLcCRB-98" style="edgeStyle=orthogonalEdgeStyle;rounded=0;orthogonalLoop=1;jettySize=auto;html=1;exitX=1;exitY=0.5;exitDx=0;exitDy=0;exitPerimeter=0;entryX=0;entryY=0.2;entryDx=0;entryDy=0;fontFamily=Lucida Console;entryPerimeter=0;" parent="FTkBiSrHJ2rmspxLcCRB-127" source="FTkBiSrHJ2rmspxLcCRB-95" target="FTkBiSrHJ2rmspxLcCRB-104" edge="1">
          <mxGeometry relative="1" as="geometry">
            <mxPoint x="361.2903225806449" y="80" as="targetPoint" />
            <Array as="points">
              <mxPoint x="270" y="80" />
              <mxPoint x="270" y="50" />
            </Array>
          </mxGeometry>
        </mxCell>
        <mxCell id="FTkBiSrHJ2rmspxLcCRB-104" value="mux" style="rounded=0;whiteSpace=wrap;html=1;fontFamily=Lucida Console;points=[[0,0,0,0,0],[0,0.2,0,0,0],[0,0.4,0,0,0],[0,0.6,0,0,0],[0,0.8,0,0,0],[0,1,0,0,0],[0.25,0,0,0,0],[0.25,1,0,0,0],[0.5,0,0,0,0],[0.5,1,0,0,0],[0.75,0,0,0,0],[0.75,1,0,0,0],[1,0,0,0,0],[1,0.25,0,0,0],[1,0.5,0,0,0],[1,0.75,0,0,0],[1,1,0,0,0]];" parent="FTkBiSrHJ2rmspxLcCRB-127" vertex="1">
          <mxGeometry x="536.77" y="20" width="41.29" height="150" as="geometry" />
        </mxCell>
        <mxCell id="FTkBiSrHJ2rmspxLcCRB-102" style="edgeStyle=orthogonalEdgeStyle;rounded=0;orthogonalLoop=1;jettySize=auto;html=1;exitX=1;exitY=0.5;exitDx=0;exitDy=0;entryX=0;entryY=0.4;entryDx=0;entryDy=0;fontFamily=Lucida Console;entryPerimeter=0;" parent="FTkBiSrHJ2rmspxLcCRB-127" source="FTkBiSrHJ2rmspxLcCRB-69" target="FTkBiSrHJ2rmspxLcCRB-104" edge="1">
          <mxGeometry relative="1" as="geometry">
            <Array as="points">
              <mxPoint x="340" y="140" />
              <mxPoint x="340" y="80" />
            </Array>
            <mxPoint x="320" y="140" as="targetPoint" />
          </mxGeometry>
        </mxCell>
        <mxCell id="FTkBiSrHJ2rmspxLcCRB-113" style="edgeStyle=orthogonalEdgeStyle;rounded=0;orthogonalLoop=1;jettySize=auto;html=1;exitX=1;exitY=0.5;exitDx=0;exitDy=0;entryX=1;entryY=0.75;entryDx=0;entryDy=0;jumpStyle=arc;fontFamily=Lucida Console;" parent="FTkBiSrHJ2rmspxLcCRB-127" source="FTkBiSrHJ2rmspxLcCRB-69" target="FTkBiSrHJ2rmspxLcCRB-127" edge="1">
          <mxGeometry relative="1" as="geometry">
            <Array as="points">
              <mxPoint x="340" y="140" />
              <mxPoint x="340" y="195" />
            </Array>
          </mxGeometry>
        </mxCell>
        <mxCell id="FTkBiSrHJ2rmspxLcCRB-87" style="edgeStyle=orthogonalEdgeStyle;rounded=0;orthogonalLoop=1;jettySize=auto;html=1;exitX=1;exitY=0.5;exitDx=0;exitDy=0;entryX=0;entryY=0.25;entryDx=0;entryDy=0;fontFamily=Lucida Console;" parent="FTkBiSrHJ2rmspxLcCRB-127" source="FTkBiSrHJ2rmspxLcCRB-69" target="FTkBiSrHJ2rmspxLcCRB-84" edge="1">
          <mxGeometry relative="1" as="geometry" />
        </mxCell>
        <mxCell id="FTkBiSrHJ2rmspxLcCRB-115" value="pc+4" style="edgeLabel;html=1;align=center;verticalAlign=middle;resizable=0;points=[];fontFamily=Lucida Console;" parent="FTkBiSrHJ2rmspxLcCRB-87" vertex="1" connectable="0">
          <mxGeometry relative="1" as="geometry">
            <mxPoint y="-10" as="offset" />
          </mxGeometry>
        </mxCell>
        <mxCell id="FTkBiSrHJ2rmspxLcCRB-133" style="edgeStyle=orthogonalEdgeStyle;rounded=0;orthogonalLoop=1;jettySize=auto;html=1;entryX=0;entryY=0.25;entryDx=0;entryDy=0;entryPerimeter=0;fontFamily=Lucida Console;" parent="FTkBiSrHJ2rmspxLcCRB-127" target="FTkBiSrHJ2rmspxLcCRB-95" edge="1">
          <mxGeometry relative="1" as="geometry">
            <Array as="points">
              <mxPoint x="190" y="70" />
              <mxPoint x="190" y="70" />
            </Array>
            <mxPoint y="70" as="sourcePoint" />
          </mxGeometry>
        </mxCell>
        <mxCell id="FTkBiSrHJ2rmspxLcCRB-134" style="edgeStyle=orthogonalEdgeStyle;rounded=0;orthogonalLoop=1;jettySize=auto;html=1;exitX=0;exitY=0.5;exitDx=0;exitDy=0;exitPerimeter=0;entryX=0;entryY=0.5;entryDx=0;entryDy=0;entryPerimeter=0;fontFamily=Lucida Console;" parent="FTkBiSrHJ2rmspxLcCRB-127" source="FTkBiSrHJ2rmspxLcCRB-127" target="FTkBiSrHJ2rmspxLcCRB-95" edge="1">
          <mxGeometry relative="1" as="geometry">
            <Array as="points">
              <mxPoint x="30" y="130" />
              <mxPoint x="30" y="90" />
            </Array>
          </mxGeometry>
        </mxCell>
        <mxCell id="FTkBiSrHJ2rmspxLcCRB-136" style="edgeStyle=orthogonalEdgeStyle;rounded=0;orthogonalLoop=1;jettySize=auto;html=1;exitX=0;exitY=0.5;exitDx=0;exitDy=60;exitPerimeter=0;entryX=0;entryY=0.75;entryDx=0;entryDy=0;fontFamily=Lucida Console;" parent="FTkBiSrHJ2rmspxLcCRB-127" source="FTkBiSrHJ2rmspxLcCRB-127" target="FTkBiSrHJ2rmspxLcCRB-79" edge="1">
          <mxGeometry relative="1" as="geometry">
            <Array as="points">
              <mxPoint x="60" y="190" />
              <mxPoint x="60" y="190" />
            </Array>
          </mxGeometry>
        </mxCell>
        <mxCell id="FTkBiSrHJ2rmspxLcCRB-138" style="edgeStyle=orthogonalEdgeStyle;rounded=0;orthogonalLoop=1;jettySize=auto;html=1;exitX=1;exitY=0.5;exitDx=0;exitDy=0;entryX=1;entryY=0.5;entryDx=0;entryDy=0;entryPerimeter=0;fontFamily=Lucida Console;" parent="FTkBiSrHJ2rmspxLcCRB-127" source="FTkBiSrHJ2rmspxLcCRB-104" target="FTkBiSrHJ2rmspxLcCRB-127" edge="1">
          <mxGeometry relative="1" as="geometry">
            <Array as="points">
              <mxPoint x="599" y="95" />
              <mxPoint x="599" y="130" />
            </Array>
          </mxGeometry>
        </mxCell>
        <mxCell id="FTkBiSrHJ2rmspxLcCRB-144" style="edgeStyle=orthogonalEdgeStyle;rounded=0;orthogonalLoop=1;jettySize=auto;html=1;exitX=0;exitY=0.5;exitDx=0;exitDy=-60;exitPerimeter=0;entryX=0;entryY=0.25;entryDx=0;entryDy=0;jumpStyle=arc;fontFamily=Lucida Console;" parent="FTkBiSrHJ2rmspxLcCRB-127" source="FTkBiSrHJ2rmspxLcCRB-127" target="FTkBiSrHJ2rmspxLcCRB-69" edge="1">
          <mxGeometry relative="1" as="geometry">
            <Array as="points">
              <mxPoint x="60" y="70" />
              <mxPoint x="60" y="130" />
            </Array>
          </mxGeometry>
        </mxCell>
        <mxCell id="FTkBiSrHJ2rmspxLcCRB-167" style="edgeStyle=orthogonalEdgeStyle;rounded=0;orthogonalLoop=1;jettySize=auto;html=1;exitX=0.5;exitY=1;exitDx=0;exitDy=0;exitPerimeter=0;entryX=0;entryY=0.8;entryDx=0;entryDy=0;jumpStyle=arc;entryPerimeter=0;fontFamily=Lucida Console;" parent="FTkBiSrHJ2rmspxLcCRB-127" source="FTkBiSrHJ2rmspxLcCRB-127" target="FTkBiSrHJ2rmspxLcCRB-104" edge="1">
          <mxGeometry relative="1" as="geometry">
            <Array as="points">
              <mxPoint x="320" y="230" />
              <mxPoint x="460" y="230" />
              <mxPoint x="460" y="140" />
            </Array>
            <mxPoint x="340.64516129032245" y="170" as="targetPoint" />
          </mxGeometry>
        </mxCell>
        <mxCell id="FTkBiSrHJ2rmspxLcCRB-170" style="edgeStyle=orthogonalEdgeStyle;rounded=0;orthogonalLoop=1;jettySize=auto;html=1;exitX=0.75;exitY=1;exitDx=0;exitDy=0;exitPerimeter=0;entryX=0.25;entryY=1;entryDx=0;entryDy=0;jumpStyle=arc;entryPerimeter=0;fontFamily=Lucida Console;" parent="FTkBiSrHJ2rmspxLcCRB-127" source="FTkBiSrHJ2rmspxLcCRB-127" target="FTkBiSrHJ2rmspxLcCRB-104" edge="1">
          <mxGeometry relative="1" as="geometry">
            <Array as="points">
              <mxPoint x="480" y="220" />
              <mxPoint x="547" y="220" />
            </Array>
          </mxGeometry>
        </mxCell>
        <mxCell id="n8QdvBFhg09HrveP-W7Y-4" style="edgeStyle=orthogonalEdgeStyle;rounded=0;orthogonalLoop=1;jettySize=auto;html=1;exitX=0.5;exitY=1;exitDx=200;exitDy=0;exitPerimeter=0;entryX=0.75;entryY=1;entryDx=0;entryDy=0;entryPerimeter=0;fontFamily=Lucida Console;" edge="1" parent="FTkBiSrHJ2rmspxLcCRB-127" source="FTkBiSrHJ2rmspxLcCRB-127" target="FTkBiSrHJ2rmspxLcCRB-104">
          <mxGeometry relative="1" as="geometry">
            <Array as="points">
              <mxPoint x="520" y="240" />
              <mxPoint x="568" y="240" />
              <mxPoint x="568" y="180" />
              <mxPoint x="568" y="180" />
            </Array>
          </mxGeometry>
        </mxCell>
        <mxCell id="FTkBiSrHJ2rmspxLcCRB-91" style="edgeStyle=orthogonalEdgeStyle;rounded=0;orthogonalLoop=1;jettySize=auto;html=1;exitX=0.5;exitY=1;exitDx=0;exitDy=0;entryX=0;entryY=0.5;entryDx=0;entryDy=-60;entryPerimeter=0;fontFamily=Lucida Console;" parent="1" source="n8QdvBFhg09HrveP-W7Y-9" target="FTkBiSrHJ2rmspxLcCRB-127" edge="1">
          <mxGeometry relative="1" as="geometry">
            <mxPoint x="440" y="-560" as="targetPoint" />
            <Array as="points">
              <mxPoint x="60" y="-260" />
              <mxPoint x="150" y="-260" />
              <mxPoint x="150" y="-760" />
            </Array>
            <mxPoint x="-80" y="-160" as="sourcePoint" />
          </mxGeometry>
        </mxCell>
        <mxCell id="UOHA7woj6OvB0M2nep7R-140" style="edgeStyle=orthogonalEdgeStyle;rounded=0;orthogonalLoop=1;jettySize=auto;html=1;exitX=1;exitY=0.5;exitDx=0;exitDy=0;entryX=0;entryY=0.5;entryDx=0;entryDy=0;fontFamily=Lucida Console;" parent="1" source="UOHA7woj6OvB0M2nep7R-135" target="UOHA7woj6OvB0M2nep7R-138" edge="1">
          <mxGeometry relative="1" as="geometry" />
        </mxCell>
        <mxCell id="UOHA7woj6OvB0M2nep7R-135" value="im.v" style="rounded=0;whiteSpace=wrap;html=1;fontFamily=Lucida Console;" parent="1" vertex="1">
          <mxGeometry y="-200" width="120" height="80" as="geometry" />
        </mxCell>
        <mxCell id="FTkBiSrHJ2rmspxLcCRB-31" style="edgeStyle=orthogonalEdgeStyle;rounded=0;orthogonalLoop=1;jettySize=auto;html=1;exitX=1;exitY=0.6;exitDx=0;exitDy=0;exitPerimeter=0;entryX=0;entryY=0.75;entryDx=0;entryDy=0;fontFamily=Lucida Console;" parent="1" source="UOHA7woj6OvB0M2nep7R-136" target="FTkBiSrHJ2rmspxLcCRB-25" edge="1">
          <mxGeometry relative="1" as="geometry">
            <Array as="points">
              <mxPoint x="660" y="-130" />
              <mxPoint x="660" y="-80" />
            </Array>
          </mxGeometry>
        </mxCell>
        <mxCell id="FTkBiSrHJ2rmspxLcCRB-4" value="" style="group;fontFamily=Lucida Console;" parent="1" vertex="1" connectable="0">
          <mxGeometry x="160" y="-230" width="80" height="140" as="geometry" />
        </mxCell>
        <mxCell id="UOHA7woj6OvB0M2nep7R-138" value="instr" style="rounded=0;whiteSpace=wrap;html=1;textDirection=vertical-lr;fontFamily=Lucida Console;points=[[0,0,0,0,0],[0,0.25,0,0,0],[0,0.5,0,0,0],[0,0.75,0,0,0],[0,1,0,0,0],[0.25,0,0,0,0],[0.25,1,0,0,0],[0.5,0,0,0,0],[0.5,1,0,0,0],[0.75,0,0,0,0],[0.75,1,0,0,0],[1,0,0,0,0],[1,0.14,0,0,0],[1,0.28,0,0,1],[1,0.43,0,0,0],[1,0.57,0,0,0],[1,0.7,0,0,2],[1,0.86,0,0,0],[1,1,0,0,0]];container=0;" parent="FTkBiSrHJ2rmspxLcCRB-4" vertex="1">
          <mxGeometry width="80" height="140" as="geometry" />
        </mxCell>
        <mxCell id="UOHA7woj6OvB0M2nep7R-141" value="op" style="text;html=1;align=right;verticalAlign=bottom;whiteSpace=wrap;rounded=0;fontFamily=Lucida Console;movable=0;resizable=0;rotatable=0;deletable=0;editable=0;locked=1;connectable=0;" parent="FTkBiSrHJ2rmspxLcCRB-4" vertex="1">
          <mxGeometry x="60" y="20" width="20" height="10" as="geometry" />
        </mxCell>
        <mxCell id="UOHA7woj6OvB0M2nep7R-142" value="&lt;div style=&quot;forced-color-adjust: none; color: rgb(0, 0, 0); font-size: 12px; font-style: normal; font-variant-ligatures: normal; font-variant-caps: normal; font-weight: 400; letter-spacing: normal; orphans: 2; text-indent: 0px; text-transform: none; widows: 2; word-spacing: 0px; -webkit-text-stroke-width: 0px; white-space: normal; background-color: rgb(255, 255, 255); text-decoration-thickness: initial; text-decoration-style: initial; text-decoration-color: initial;&quot;&gt;funct&lt;br&gt;&lt;/div&gt;" style="text;whiteSpace=wrap;html=1;verticalAlign=bottom;align=right;fontFamily=Lucida Console;movable=0;resizable=0;rotatable=0;deletable=0;editable=0;locked=1;connectable=0;" parent="FTkBiSrHJ2rmspxLcCRB-4" vertex="1">
          <mxGeometry x="50" y="40" width="30" height="10" as="geometry" />
        </mxCell>
        <mxCell id="UOHA7woj6OvB0M2nep7R-144" value="&lt;div style=&quot;forced-color-adjust: none; color: rgb(0, 0, 0); font-size: 12px; font-style: normal; font-variant-ligatures: normal; font-variant-caps: normal; font-weight: 400; letter-spacing: normal; orphans: 2; text-indent: 0px; text-transform: none; widows: 2; word-spacing: 0px; -webkit-text-stroke-width: 0px; white-space: normal; background-color: rgb(255, 255, 255); text-decoration-thickness: initial; text-decoration-style: initial; text-decoration-color: initial;&quot;&gt;rs&lt;br&gt;&lt;/div&gt;" style="text;whiteSpace=wrap;html=1;verticalAlign=bottom;align=right;fontFamily=Lucida Console;movable=0;resizable=0;rotatable=0;deletable=0;editable=0;locked=1;connectable=0;" parent="FTkBiSrHJ2rmspxLcCRB-4" vertex="1">
          <mxGeometry x="60" y="60" width="20" height="10" as="geometry" />
        </mxCell>
        <mxCell id="UOHA7woj6OvB0M2nep7R-145" value="&lt;div style=&quot;forced-color-adjust: none; color: rgb(0, 0, 0); font-size: 12px; font-style: normal; font-variant-ligatures: normal; font-variant-caps: normal; font-weight: 400; letter-spacing: normal; orphans: 2; text-indent: 0px; text-transform: none; widows: 2; word-spacing: 0px; -webkit-text-stroke-width: 0px; white-space: normal; background-color: rgb(255, 255, 255); text-decoration-thickness: initial; text-decoration-style: initial; text-decoration-color: initial;&quot;&gt;rt&lt;br&gt;&lt;/div&gt;" style="text;whiteSpace=wrap;html=1;verticalAlign=bottom;align=right;fontFamily=Lucida Console;movable=0;resizable=0;rotatable=0;deletable=0;editable=0;locked=1;connectable=0;" parent="FTkBiSrHJ2rmspxLcCRB-4" vertex="1">
          <mxGeometry x="60" y="80" width="20" height="10" as="geometry" />
        </mxCell>
        <mxCell id="UOHA7woj6OvB0M2nep7R-146" value="&lt;div style=&quot;forced-color-adjust: none; color: rgb(0, 0, 0); font-size: 12px; font-style: normal; font-variant-ligatures: normal; font-variant-caps: normal; font-weight: 400; letter-spacing: normal; orphans: 2; text-indent: 0px; text-transform: none; widows: 2; word-spacing: 0px; -webkit-text-stroke-width: 0px; white-space: normal; background-color: rgb(255, 255, 255); text-decoration-thickness: initial; text-decoration-style: initial; text-decoration-color: initial;&quot;&gt;rd&lt;br&gt;&lt;/div&gt;" style="text;whiteSpace=wrap;html=1;verticalAlign=bottom;align=right;fontFamily=Lucida Console;movable=0;resizable=0;rotatable=0;deletable=0;editable=0;locked=1;connectable=0;" parent="FTkBiSrHJ2rmspxLcCRB-4" vertex="1">
          <mxGeometry x="60" y="100" width="20" height="10" as="geometry" />
        </mxCell>
        <mxCell id="UOHA7woj6OvB0M2nep7R-147" value="&lt;div style=&quot;forced-color-adjust: none; color: rgb(0, 0, 0); font-size: 12px; font-style: normal; font-variant-ligatures: normal; font-variant-caps: normal; font-weight: 400; letter-spacing: normal; orphans: 2; text-indent: 0px; text-transform: none; widows: 2; word-spacing: 0px; -webkit-text-stroke-width: 0px; white-space: normal; background-color: rgb(255, 255, 255); text-decoration-thickness: initial; text-decoration-style: initial; text-decoration-color: initial;&quot;&gt;shamt&lt;br&gt;&lt;/div&gt;" style="text;whiteSpace=wrap;html=1;verticalAlign=bottom;align=right;fontFamily=Lucida Console;movable=0;resizable=0;rotatable=0;deletable=0;editable=0;locked=1;connectable=0;" parent="FTkBiSrHJ2rmspxLcCRB-4" vertex="1">
          <mxGeometry x="40" y="120" width="40" height="10" as="geometry" />
        </mxCell>
        <mxCell id="FTkBiSrHJ2rmspxLcCRB-2" value="j26" style="text;html=1;align=right;verticalAlign=bottom;whiteSpace=wrap;rounded=0;horizontal=0;fontFamily=Lucida Console;movable=0;resizable=0;rotatable=0;deletable=0;editable=0;locked=1;connectable=0;" parent="FTkBiSrHJ2rmspxLcCRB-4" vertex="1">
          <mxGeometry x="20" width="10" height="30" as="geometry" />
        </mxCell>
        <mxCell id="FTkBiSrHJ2rmspxLcCRB-123" value="imm" style="text;html=1;align=right;verticalAlign=bottom;whiteSpace=wrap;rounded=0;horizontal=0;fontFamily=Lucida Console;movable=1;resizable=1;rotatable=1;deletable=1;editable=1;locked=0;connectable=1;" parent="FTkBiSrHJ2rmspxLcCRB-4" vertex="1">
          <mxGeometry x="60" width="10" height="30" as="geometry" />
        </mxCell>
        <mxCell id="FTkBiSrHJ2rmspxLcCRB-7" value="mux" style="rounded=0;whiteSpace=wrap;html=1;fontFamily=Lucida Console;" parent="1" vertex="1">
          <mxGeometry x="390" y="-150" width="40" height="80" as="geometry" />
        </mxCell>
        <mxCell id="FTkBiSrHJ2rmspxLcCRB-8" style="edgeStyle=orthogonalEdgeStyle;rounded=0;orthogonalLoop=1;jettySize=auto;html=1;exitX=1;exitY=0.57;exitDx=0;exitDy=0;exitPerimeter=0;entryX=0;entryY=0.25;entryDx=0;entryDy=0;fontFamily=Lucida Console;" parent="1" source="UOHA7woj6OvB0M2nep7R-138" target="FTkBiSrHJ2rmspxLcCRB-7" edge="1">
          <mxGeometry relative="1" as="geometry">
            <Array as="points">
              <mxPoint x="320" y="-150" />
              <mxPoint x="320" y="-130" />
            </Array>
          </mxGeometry>
        </mxCell>
        <mxCell id="FTkBiSrHJ2rmspxLcCRB-9" style="edgeStyle=orthogonalEdgeStyle;rounded=0;orthogonalLoop=1;jettySize=auto;html=1;exitX=1;exitY=0.7;exitDx=0;exitDy=2;exitPerimeter=0;entryX=0;entryY=0.5;entryDx=0;entryDy=0;fontFamily=Lucida Console;" parent="1" source="UOHA7woj6OvB0M2nep7R-138" target="FTkBiSrHJ2rmspxLcCRB-7" edge="1">
          <mxGeometry relative="1" as="geometry">
            <Array as="points">
              <mxPoint x="280" y="-130" />
              <mxPoint x="280" y="-110" />
            </Array>
          </mxGeometry>
        </mxCell>
        <mxCell id="FTkBiSrHJ2rmspxLcCRB-14" style="edgeStyle=orthogonalEdgeStyle;rounded=0;orthogonalLoop=1;jettySize=auto;html=1;exitX=1;exitY=0.57;exitDx=0;exitDy=0;exitPerimeter=0;entryX=0;entryY=0.4;entryDx=0;entryDy=0;entryPerimeter=0;fontFamily=Lucida Console;" parent="1" source="UOHA7woj6OvB0M2nep7R-138" target="UOHA7woj6OvB0M2nep7R-136" edge="1">
          <mxGeometry relative="1" as="geometry">
            <Array as="points">
              <mxPoint x="320" y="-150" />
              <mxPoint x="320" y="-160" />
            </Array>
          </mxGeometry>
        </mxCell>
        <mxCell id="FTkBiSrHJ2rmspxLcCRB-15" style="edgeStyle=orthogonalEdgeStyle;rounded=0;orthogonalLoop=1;jettySize=auto;html=1;exitX=1;exitY=0.43;exitDx=0;exitDy=0;exitPerimeter=0;entryX=0;entryY=0.2;entryDx=0;entryDy=0;entryPerimeter=0;fontFamily=Lucida Console;" parent="1" source="UOHA7woj6OvB0M2nep7R-138" target="UOHA7woj6OvB0M2nep7R-136" edge="1">
          <mxGeometry relative="1" as="geometry">
            <Array as="points">
              <mxPoint x="300" y="-170" />
              <mxPoint x="300" y="-190" />
            </Array>
          </mxGeometry>
        </mxCell>
        <mxCell id="FTkBiSrHJ2rmspxLcCRB-23" style="edgeStyle=orthogonalEdgeStyle;rounded=0;orthogonalLoop=1;jettySize=auto;html=1;exitX=1;exitY=0.2;exitDx=0;exitDy=0;exitPerimeter=0;entryX=0;entryY=0.25;entryDx=0;entryDy=0;entryPerimeter=0;fontFamily=Lucida Console;" parent="1" source="UOHA7woj6OvB0M2nep7R-136" target="FTkBiSrHJ2rmspxLcCRB-19" edge="1">
          <mxGeometry relative="1" as="geometry" />
        </mxCell>
        <mxCell id="FTkBiSrHJ2rmspxLcCRB-25" value="mux" style="rounded=0;whiteSpace=wrap;html=1;fontFamily=Lucida Console;" parent="1" vertex="1">
          <mxGeometry x="720" y="-110" width="40" height="40" as="geometry" />
        </mxCell>
        <mxCell id="FTkBiSrHJ2rmspxLcCRB-30" style="edgeStyle=orthogonalEdgeStyle;rounded=0;orthogonalLoop=1;jettySize=auto;html=1;exitX=1;exitY=0.5;exitDx=0;exitDy=0;entryX=0;entryY=0.75;entryDx=0;entryDy=0;entryPerimeter=0;fontFamily=Lucida Console;" parent="1" source="FTkBiSrHJ2rmspxLcCRB-25" target="FTkBiSrHJ2rmspxLcCRB-19" edge="1">
          <mxGeometry relative="1" as="geometry" />
        </mxCell>
        <mxCell id="FTkBiSrHJ2rmspxLcCRB-36" style="edgeStyle=orthogonalEdgeStyle;rounded=0;orthogonalLoop=1;jettySize=auto;html=1;exitX=1;exitY=0.86;exitDx=0;exitDy=0;exitPerimeter=0;entryX=0.5;entryY=1;entryDx=0;entryDy=-20;entryPerimeter=0;fontFamily=Lucida Console;" parent="1" source="UOHA7woj6OvB0M2nep7R-138" target="FTkBiSrHJ2rmspxLcCRB-19" edge="1">
          <mxGeometry relative="1" as="geometry">
            <Array as="points">
              <mxPoint x="260" y="-110" />
              <mxPoint x="260" y="-20" />
              <mxPoint x="840" y="-20" />
            </Array>
          </mxGeometry>
        </mxCell>
        <mxCell id="FTkBiSrHJ2rmspxLcCRB-54" style="edgeStyle=orthogonalEdgeStyle;rounded=0;orthogonalLoop=1;jettySize=auto;html=1;exitX=1;exitY=0.5;exitDx=0;exitDy=0;entryX=0;entryY=0.5;entryDx=0;entryDy=0;fontFamily=Lucida Console;" parent="1" source="FTkBiSrHJ2rmspxLcCRB-37" target="FTkBiSrHJ2rmspxLcCRB-57" edge="1">
          <mxGeometry relative="1" as="geometry">
            <mxPoint x="1080" y="-120" as="targetPoint" />
          </mxGeometry>
        </mxCell>
        <mxCell id="FTkBiSrHJ2rmspxLcCRB-39" style="edgeStyle=orthogonalEdgeStyle;rounded=0;orthogonalLoop=1;jettySize=auto;html=1;exitX=1;exitY=0.75;exitDx=0;exitDy=-20;exitPerimeter=0;entryX=0;entryY=0.25;entryDx=0;entryDy=0;fontFamily=Lucida Console;" parent="1" source="FTkBiSrHJ2rmspxLcCRB-19" target="FTkBiSrHJ2rmspxLcCRB-37" edge="1">
          <mxGeometry relative="1" as="geometry" />
        </mxCell>
        <mxCell id="FTkBiSrHJ2rmspxLcCRB-55" style="edgeStyle=orthogonalEdgeStyle;rounded=0;orthogonalLoop=1;jettySize=auto;html=1;exitX=1;exitY=0.75;exitDx=0;exitDy=-20;exitPerimeter=0;entryX=0;entryY=0.75;entryDx=0;entryDy=0;fontFamily=Lucida Console;jumpStyle=arc;" parent="1" source="FTkBiSrHJ2rmspxLcCRB-19" target="FTkBiSrHJ2rmspxLcCRB-57" edge="1">
          <mxGeometry relative="1" as="geometry">
            <Array as="points">
              <mxPoint x="920" y="-110" />
              <mxPoint x="920" y="-50" />
              <mxPoint x="1080" y="-50" />
              <mxPoint x="1080" y="-120" />
            </Array>
            <mxPoint x="1080" y="-160" as="targetPoint" />
          </mxGeometry>
        </mxCell>
        <mxCell id="FTkBiSrHJ2rmspxLcCRB-41" style="edgeStyle=orthogonalEdgeStyle;rounded=0;orthogonalLoop=1;jettySize=auto;html=1;exitX=1;exitY=0.6;exitDx=0;exitDy=0;exitPerimeter=0;entryX=0;entryY=0.75;entryDx=0;entryDy=0;jumpStyle=arc;fontFamily=Lucida Console;" parent="1" source="UOHA7woj6OvB0M2nep7R-136" target="FTkBiSrHJ2rmspxLcCRB-37" edge="1">
          <mxGeometry relative="1" as="geometry">
            <Array as="points">
              <mxPoint x="660" y="-130" />
              <mxPoint x="660" />
              <mxPoint x="940" />
              <mxPoint x="940" y="-110" />
            </Array>
          </mxGeometry>
        </mxCell>
        <mxCell id="n8QdvBFhg09HrveP-W7Y-8" style="edgeStyle=orthogonalEdgeStyle;rounded=0;orthogonalLoop=1;jettySize=auto;html=1;exitX=1;exitY=0;exitDx=0;exitDy=0;entryX=0;entryY=0.75;entryDx=0;entryDy=0;fontFamily=Lucida Console;" edge="1" parent="1" source="FTkBiSrHJ2rmspxLcCRB-51" target="FTkBiSrHJ2rmspxLcCRB-7">
          <mxGeometry relative="1" as="geometry">
            <Array as="points">
              <mxPoint x="380" y="-90" />
              <mxPoint x="380" y="-90" />
            </Array>
          </mxGeometry>
        </mxCell>
        <mxCell id="FTkBiSrHJ2rmspxLcCRB-51" value="&lt;font&gt;31&lt;/font&gt;" style="text;html=1;align=right;verticalAlign=bottom;whiteSpace=wrap;rounded=0;fontFamily=Lucida Console;" parent="1" vertex="1">
          <mxGeometry x="350" y="-90" width="20" height="10" as="geometry" />
        </mxCell>
        <mxCell id="FTkBiSrHJ2rmspxLcCRB-57" value="mux" style="rounded=0;whiteSpace=wrap;html=1;fontFamily=Lucida Console;" parent="1" vertex="1">
          <mxGeometry x="1140" y="-180" width="40" height="80" as="geometry" />
        </mxCell>
        <mxCell id="FTkBiSrHJ2rmspxLcCRB-59" style="edgeStyle=orthogonalEdgeStyle;rounded=0;orthogonalLoop=1;jettySize=auto;html=1;exitX=1;exitY=0.5;exitDx=0;exitDy=0;entryX=0;entryY=0.8;entryDx=0;entryDy=0;entryPerimeter=0;jumpStyle=arc;fontFamily=Lucida Console;" parent="1" source="FTkBiSrHJ2rmspxLcCRB-57" target="UOHA7woj6OvB0M2nep7R-136" edge="1">
          <mxGeometry relative="1" as="geometry">
            <Array as="points">
              <mxPoint x="1180" y="-160" />
              <mxPoint x="1200" y="-160" />
              <mxPoint x="1200" y="20" />
              <mxPoint x="460" y="20" />
              <mxPoint x="460" y="-100" />
            </Array>
          </mxGeometry>
        </mxCell>
        <mxCell id="FTkBiSrHJ2rmspxLcCRB-62" value="" style="group;fontFamily=Lucida Console;" parent="1" vertex="1" connectable="0">
          <mxGeometry x="480" y="-220" width="160" height="150" as="geometry" />
        </mxCell>
        <mxCell id="UOHA7woj6OvB0M2nep7R-136" value="grf.v" style="rounded=0;whiteSpace=wrap;html=1;fontFamily=Lucida Console;points=[[0,0,0,0,0],[0,0.2,0,0,0],[0,0.4,0,0,0],[0,0.6,0,0,0],[0,0.8,0,0,0],[0,1,0,0,0],[0.25,0,0,0,0],[0.25,1,0,0,0],[0.5,0,0,0,0],[0.5,1,0,0,0],[0.75,0,0,0,0],[0.75,1,0,0,0],[1,0,0,0,0],[1,0.2,0,0,0],[1,0.4,0,0,0],[1,0.6,0,0,0],[1,0.8,0,0,0],[1,1,0,0,0]];" parent="FTkBiSrHJ2rmspxLcCRB-62" vertex="1">
          <mxGeometry width="160" height="150" as="geometry" />
        </mxCell>
        <mxCell id="FTkBiSrHJ2rmspxLcCRB-16" value="A1" style="text;html=1;align=left;verticalAlign=bottom;whiteSpace=wrap;rounded=0;fontFamily=Lucida Console;movable=0;resizable=0;rotatable=0;deletable=0;editable=0;locked=1;connectable=0;" parent="FTkBiSrHJ2rmspxLcCRB-62" vertex="1">
          <mxGeometry y="30" width="20" height="10" as="geometry" />
        </mxCell>
        <mxCell id="FTkBiSrHJ2rmspxLcCRB-17" value="A2" style="text;html=1;align=left;verticalAlign=bottom;whiteSpace=wrap;rounded=0;fontFamily=Lucida Console;movable=0;resizable=0;rotatable=0;deletable=0;editable=0;locked=1;connectable=0;" parent="FTkBiSrHJ2rmspxLcCRB-62" vertex="1">
          <mxGeometry y="60" width="20" height="10" as="geometry" />
        </mxCell>
        <mxCell id="FTkBiSrHJ2rmspxLcCRB-18" value="A3" style="text;html=1;align=left;verticalAlign=bottom;whiteSpace=wrap;rounded=0;fontFamily=Lucida Console;movable=0;resizable=0;rotatable=0;deletable=0;editable=0;locked=1;connectable=0;" parent="FTkBiSrHJ2rmspxLcCRB-62" vertex="1">
          <mxGeometry y="90" width="20" height="10" as="geometry" />
        </mxCell>
        <mxCell id="FTkBiSrHJ2rmspxLcCRB-22" value="RD1" style="text;html=1;align=center;verticalAlign=bottom;whiteSpace=wrap;rounded=0;movable=0;resizable=0;rotatable=0;deletable=0;editable=0;locked=1;connectable=0;fontFamily=Lucida Console;" parent="FTkBiSrHJ2rmspxLcCRB-62" vertex="1">
          <mxGeometry x="130" y="30" width="30" height="10" as="geometry" />
        </mxCell>
        <mxCell id="FTkBiSrHJ2rmspxLcCRB-24" value="RD2" style="text;html=1;align=center;verticalAlign=bottom;whiteSpace=wrap;rounded=0;movable=0;resizable=0;rotatable=0;deletable=0;editable=0;locked=1;connectable=0;fontFamily=Lucida Console;" parent="FTkBiSrHJ2rmspxLcCRB-62" vertex="1">
          <mxGeometry x="130" y="90" width="30" height="10" as="geometry" />
        </mxCell>
        <mxCell id="FTkBiSrHJ2rmspxLcCRB-60" value="WD" style="text;html=1;align=left;verticalAlign=bottom;whiteSpace=wrap;rounded=0;fontFamily=Lucida Console;movable=0;resizable=0;rotatable=0;deletable=0;editable=0;locked=1;connectable=0;" parent="FTkBiSrHJ2rmspxLcCRB-62" vertex="1">
          <mxGeometry y="120" width="20" height="10" as="geometry" />
        </mxCell>
        <mxCell id="FTkBiSrHJ2rmspxLcCRB-64" value="" style="group;fontFamily=Lucida Console;" parent="1" vertex="1" connectable="0">
          <mxGeometry x="960" y="-200" width="80" height="120" as="geometry" />
        </mxCell>
        <mxCell id="FTkBiSrHJ2rmspxLcCRB-37" value="dm.v" style="rounded=0;whiteSpace=wrap;html=1;fontFamily=Lucida Console;" parent="FTkBiSrHJ2rmspxLcCRB-64" vertex="1">
          <mxGeometry width="80" height="120" as="geometry" />
        </mxCell>
        <mxCell id="FTkBiSrHJ2rmspxLcCRB-40" value="addr" style="text;html=1;align=left;verticalAlign=bottom;whiteSpace=wrap;rounded=0;movable=0;resizable=0;rotatable=0;deletable=0;editable=0;locked=1;connectable=0;fontFamily=Lucida Console;" parent="FTkBiSrHJ2rmspxLcCRB-64" vertex="1">
          <mxGeometry y="30" width="30" height="10" as="geometry" />
        </mxCell>
        <mxCell id="FTkBiSrHJ2rmspxLcCRB-42" value="WD" style="text;html=1;align=left;verticalAlign=bottom;whiteSpace=wrap;rounded=0;movable=0;resizable=0;rotatable=0;deletable=0;editable=0;locked=1;connectable=0;fontFamily=Lucida Console;" parent="FTkBiSrHJ2rmspxLcCRB-64" vertex="1">
          <mxGeometry y="90" width="30" height="10" as="geometry" />
        </mxCell>
        <mxCell id="FTkBiSrHJ2rmspxLcCRB-63" value="RD" style="text;html=1;align=right;verticalAlign=bottom;whiteSpace=wrap;rounded=0;movable=0;resizable=0;rotatable=0;deletable=0;editable=0;locked=1;connectable=0;fontFamily=Lucida Console;" parent="FTkBiSrHJ2rmspxLcCRB-64" vertex="1">
          <mxGeometry x="60" y="60" width="20" height="10" as="geometry" />
        </mxCell>
        <mxCell id="FTkBiSrHJ2rmspxLcCRB-65" value="" style="group;fontFamily=Lucida Console;" parent="1" vertex="1" connectable="0">
          <mxGeometry x="800" y="-240" width="80" height="200" as="geometry" />
        </mxCell>
        <mxCell id="FTkBiSrHJ2rmspxLcCRB-19" value="alu.v" style="shape=stencil(tZXbDoIwEES/pq+mpWB8Naj/UXGVxtqStt7+3oVCYr0HISEkO0MPkzAbCM9dKSogCS0JX5AkYZTiHedzmNN2FK6CwgftJKwUawXBcd6aPZzlxrcIqUuw0tcuXxI6x2fqi+eF0Roh0mgXOXc+woTUeJZeAqx9/TWaKuQfwINtMweVJKvfsZNsHDAbKW+M7dIPnnc4cJyYjfXhBgOz/lieo/Ku3DzfGgs7a4568zLMVioVduhD4krU2/VkdPbBnODLzrwmdwAl9R0gjQkDIGY9EA8Non8jpj0ILEZkf4dIfyIUyrhPfUD9TSW+FKo5+tTIRg1/gka4AQ==);whiteSpace=wrap;html=1;points=[[0,0,0,0,0],[0,0.25,0,0,0],[0,0.75,0,0,0],[0,1,0,0,0],[0.5,0,0,0,20],[0.5,1,0,0,-20],[1,0.25,0,0,20],[1,0.75,0,0,-20]];fontFamily=Lucida Console;" parent="FTkBiSrHJ2rmspxLcCRB-65" vertex="1">
          <mxGeometry width="80" height="200" as="geometry" />
        </mxCell>
        <mxCell id="FTkBiSrHJ2rmspxLcCRB-26" value="srcA" style="text;html=1;align=left;verticalAlign=bottom;whiteSpace=wrap;rounded=0;movable=0;resizable=0;rotatable=0;deletable=0;editable=0;locked=1;connectable=0;fontFamily=Lucida Console;" parent="FTkBiSrHJ2rmspxLcCRB-65" vertex="1">
          <mxGeometry y="50" width="40" height="10" as="geometry" />
        </mxCell>
        <mxCell id="FTkBiSrHJ2rmspxLcCRB-27" value="srcB" style="text;html=1;align=left;verticalAlign=bottom;whiteSpace=wrap;rounded=0;movable=0;resizable=0;rotatable=0;deletable=0;editable=0;locked=1;connectable=0;fontFamily=Lucida Console;" parent="FTkBiSrHJ2rmspxLcCRB-65" vertex="1">
          <mxGeometry y="150" width="40" height="10" as="geometry" />
        </mxCell>
        <mxCell id="FTkBiSrHJ2rmspxLcCRB-34" value="zero" style="text;html=1;align=right;verticalAlign=bottom;whiteSpace=wrap;rounded=0;movable=0;resizable=0;rotatable=0;deletable=0;editable=0;locked=1;connectable=0;fontFamily=Lucida Console;" parent="FTkBiSrHJ2rmspxLcCRB-65" vertex="1">
          <mxGeometry x="40" y="70" width="40" height="10" as="geometry" />
        </mxCell>
        <mxCell id="FTkBiSrHJ2rmspxLcCRB-35" value="res" style="text;html=1;align=right;verticalAlign=bottom;whiteSpace=wrap;rounded=0;movable=0;resizable=0;rotatable=0;deletable=0;editable=0;locked=1;connectable=0;fontFamily=Lucida Console;" parent="FTkBiSrHJ2rmspxLcCRB-65" vertex="1">
          <mxGeometry x="40" y="130" width="40" height="10" as="geometry" />
        </mxCell>
        <mxCell id="FTkBiSrHJ2rmspxLcCRB-68" value="pc" style="text;html=1;align=right;verticalAlign=bottom;whiteSpace=wrap;rounded=0;fontFamily=Lucida Console;movable=1;resizable=1;rotatable=1;deletable=1;editable=1;locked=0;connectable=1;" parent="1" vertex="1">
          <mxGeometry x="50" y="-300" width="20" height="10" as="geometry" />
        </mxCell>
        <mxCell id="FTkBiSrHJ2rmspxLcCRB-90" style="edgeStyle=orthogonalEdgeStyle;rounded=0;orthogonalLoop=1;jettySize=auto;html=1;entryX=0;entryY=0.5;entryDx=0;entryDy=0;jumpStyle=arc;fontFamily=Lucida Console;entryPerimeter=0;" parent="1" target="FTkBiSrHJ2rmspxLcCRB-127" edge="1">
          <mxGeometry relative="1" as="geometry">
            <mxPoint x="440" y="-540" as="targetPoint" />
            <mxPoint x="180" y="-230" as="sourcePoint" />
            <Array as="points">
              <mxPoint x="180" y="-700" />
            </Array>
          </mxGeometry>
        </mxCell>
        <mxCell id="FTkBiSrHJ2rmspxLcCRB-99" style="edgeStyle=orthogonalEdgeStyle;rounded=0;orthogonalLoop=1;jettySize=auto;html=1;exitX=1;exitY=0.2;exitDx=0;exitDy=0;exitPerimeter=0;entryX=0.5;entryY=1;entryDx=0;entryDy=0;jumpStyle=arc;fontFamily=Lucida Console;entryPerimeter=0;" parent="1" source="UOHA7woj6OvB0M2nep7R-136" target="FTkBiSrHJ2rmspxLcCRB-127" edge="1">
          <mxGeometry relative="1" as="geometry">
            <Array as="points">
              <mxPoint x="760" y="-190" />
            </Array>
          </mxGeometry>
        </mxCell>
        <mxCell id="FTkBiSrHJ2rmspxLcCRB-107" style="edgeStyle=orthogonalEdgeStyle;rounded=0;orthogonalLoop=1;jettySize=auto;html=1;entryX=0;entryY=0.5;entryDx=0;entryDy=0;fontFamily=Lucida Console;exitX=1;exitY=0.5;exitDx=0;exitDy=0;exitPerimeter=0;" parent="1" source="FTkBiSrHJ2rmspxLcCRB-127" target="n8QdvBFhg09HrveP-W7Y-9" edge="1">
          <mxGeometry relative="1" as="geometry">
            <mxPoint x="1150" y="-700" as="sourcePoint" />
            <Array as="points">
              <mxPoint x="1220" y="-700" />
              <mxPoint x="1220" y="40" />
              <mxPoint x="-40" y="40" />
              <mxPoint x="-40" y="-330" />
            </Array>
            <mxPoint x="-160" y="-160" as="targetPoint" />
          </mxGeometry>
        </mxCell>
        <mxCell id="FTkBiSrHJ2rmspxLcCRB-108" value="npc" style="edgeLabel;html=1;align=center;verticalAlign=middle;resizable=0;points=[];fontFamily=Lucida Console;" parent="FTkBiSrHJ2rmspxLcCRB-107" vertex="1" connectable="0">
          <mxGeometry x="1" relative="1" as="geometry">
            <mxPoint x="-30" as="offset" />
          </mxGeometry>
        </mxCell>
        <mxCell id="FTkBiSrHJ2rmspxLcCRB-129" style="edgeStyle=orthogonalEdgeStyle;rounded=0;orthogonalLoop=1;jettySize=auto;html=1;exitX=0.13;exitY=1;exitDx=0;exitDy=0;exitPerimeter=0;entryX=0.5;entryY=0;entryDx=0;entryDy=0;fontFamily=Lucida Console;" parent="1" source="FTkBiSrHJ2rmspxLcCRB-117" target="FTkBiSrHJ2rmspxLcCRB-7" edge="1">
          <mxGeometry relative="1" as="geometry">
            <Array as="points">
              <mxPoint x="340" y="-400" />
              <mxPoint x="340" y="-200" />
              <mxPoint x="410" y="-200" />
            </Array>
          </mxGeometry>
        </mxCell>
        <mxCell id="FTkBiSrHJ2rmspxLcCRB-150" style="edgeStyle=orthogonalEdgeStyle;rounded=0;orthogonalLoop=1;jettySize=auto;html=1;exitX=0.88;exitY=1;exitDx=0;exitDy=0;exitPerimeter=0;entryX=0.5;entryY=0;entryDx=0;entryDy=0;jumpStyle=arc;fontFamily=Lucida Console;" parent="1" source="FTkBiSrHJ2rmspxLcCRB-117" target="FTkBiSrHJ2rmspxLcCRB-57" edge="1">
          <mxGeometry relative="1" as="geometry">
            <Array as="points">
              <mxPoint x="582" y="-360" />
              <mxPoint x="1160" y="-360" />
            </Array>
          </mxGeometry>
        </mxCell>
        <mxCell id="FTkBiSrHJ2rmspxLcCRB-156" style="edgeStyle=orthogonalEdgeStyle;rounded=0;orthogonalLoop=1;jettySize=auto;html=1;exitX=0.75;exitY=1;exitDx=0;exitDy=0;exitPerimeter=0;entryX=0.5;entryY=0;entryDx=0;entryDy=0;jumpStyle=arc;fontFamily=Lucida Console;" parent="1" source="FTkBiSrHJ2rmspxLcCRB-117" target="FTkBiSrHJ2rmspxLcCRB-37" edge="1">
          <mxGeometry relative="1" as="geometry">
            <Array as="points">
              <mxPoint x="540" y="-340" />
              <mxPoint x="1000" y="-340" />
            </Array>
          </mxGeometry>
        </mxCell>
        <mxCell id="FTkBiSrHJ2rmspxLcCRB-117" value="ctrl.v" style="rounded=0;whiteSpace=wrap;html=1;fontFamily=Lucida Console;points=[[0,0,0,0,0],[0,0.25,0,0,0],[0,0.5,0,0,0],[0,0.75,0,0,0],[0,1,0,0,0],[0.13,0,0,0,0],[0.13,1,0,0,0],[0.25,0,0,0,0],[0.25,1,0,0,0],[0.38,0,0,0,0],[0.38,1,0,0,0],[0.5,0,0,0,0],[0.5,1,0,0,0],[0.63,0,0,0,0],[0.63,1,0,0,0],[0.75,0,0,0,0],[0.75,1,0,0,0],[0.88,0,0,0,0],[0.88,1,0,0,0],[1,0,0,0,0],[1,0.25,0,0,0],[1,0.5,0,0,0],[1,0.75,0,0,0],[1,1,0,0,0]];labelPosition=center;verticalLabelPosition=top;align=center;verticalAlign=bottom;" parent="1" vertex="1">
          <mxGeometry x="300" y="-480" width="320" height="80" as="geometry" />
        </mxCell>
        <mxCell id="FTkBiSrHJ2rmspxLcCRB-118" style="edgeStyle=orthogonalEdgeStyle;rounded=0;orthogonalLoop=1;jettySize=auto;html=1;exitX=1;exitY=0.14;exitDx=0;exitDy=0;exitPerimeter=0;entryX=0;entryY=0.25;entryDx=0;entryDy=0;fontFamily=Lucida Console;" parent="1" source="UOHA7woj6OvB0M2nep7R-138" target="FTkBiSrHJ2rmspxLcCRB-117" edge="1">
          <mxGeometry relative="1" as="geometry">
            <Array as="points">
              <mxPoint x="250" y="-210" />
              <mxPoint x="250" y="-460" />
            </Array>
          </mxGeometry>
        </mxCell>
        <mxCell id="FTkBiSrHJ2rmspxLcCRB-119" style="edgeStyle=orthogonalEdgeStyle;rounded=0;orthogonalLoop=1;jettySize=auto;html=1;exitX=1;exitY=0.28;exitDx=0;exitDy=1;exitPerimeter=0;entryX=0;entryY=0.75;entryDx=0;entryDy=0;fontFamily=Lucida Console;" parent="1" source="UOHA7woj6OvB0M2nep7R-138" target="FTkBiSrHJ2rmspxLcCRB-117" edge="1">
          <mxGeometry relative="1" as="geometry">
            <Array as="points">
              <mxPoint x="290" y="-190" />
              <mxPoint x="290" y="-420" />
            </Array>
          </mxGeometry>
        </mxCell>
        <mxCell id="FTkBiSrHJ2rmspxLcCRB-124" style="edgeStyle=orthogonalEdgeStyle;rounded=0;orthogonalLoop=1;jettySize=auto;html=1;exitX=1;exitY=0.5;exitDx=0;exitDy=0;entryX=0;entryY=0.5;entryDx=0;entryDy=60;entryPerimeter=0;fontFamily=Lucida Console;" parent="1" source="FTkBiSrHJ2rmspxLcCRB-120" target="FTkBiSrHJ2rmspxLcCRB-127" edge="1">
          <mxGeometry relative="1" as="geometry">
            <Array as="points">
              <mxPoint x="400" y="-540" />
              <mxPoint x="400" y="-640" />
            </Array>
          </mxGeometry>
        </mxCell>
        <mxCell id="FTkBiSrHJ2rmspxLcCRB-120" value="ext&lt;div&gt;0:0&lt;/div&gt;&lt;div&gt;1:-&lt;/div&gt;" style="rounded=0;whiteSpace=wrap;html=1;horizontal=1;fontFamily=Lucida Console;labelPosition=center;verticalLabelPosition=middle;align=center;verticalAlign=middle;" parent="1" vertex="1">
          <mxGeometry x="200" y="-580" width="40" height="80" as="geometry" />
        </mxCell>
        <mxCell id="FTkBiSrHJ2rmspxLcCRB-122" style="edgeStyle=orthogonalEdgeStyle;rounded=0;orthogonalLoop=1;jettySize=auto;html=1;exitX=1;exitY=0;exitDx=0;exitDy=0;entryX=0.5;entryY=1;entryDx=0;entryDy=0;fontFamily=Lucida Console;" parent="1" target="FTkBiSrHJ2rmspxLcCRB-120" edge="1">
          <mxGeometry relative="1" as="geometry">
            <mxPoint x="220.00000000000023" y="-229.99999999999955" as="sourcePoint" />
          </mxGeometry>
        </mxCell>
        <mxCell id="FTkBiSrHJ2rmspxLcCRB-125" style="edgeStyle=orthogonalEdgeStyle;rounded=0;orthogonalLoop=1;jettySize=auto;html=1;exitX=1;exitY=0.5;exitDx=0;exitDy=0;entryX=0;entryY=0.25;entryDx=0;entryDy=0;jumpStyle=arc;fontFamily=Lucida Console;" parent="1" source="FTkBiSrHJ2rmspxLcCRB-120" target="FTkBiSrHJ2rmspxLcCRB-25" edge="1">
          <mxGeometry relative="1" as="geometry">
            <Array as="points">
              <mxPoint x="270" y="-540" />
              <mxPoint x="270" y="-240" />
              <mxPoint x="680" y="-240" />
              <mxPoint x="680" y="-100" />
            </Array>
          </mxGeometry>
        </mxCell>
        <mxCell id="FTkBiSrHJ2rmspxLcCRB-126" value="&lt;font&gt;extImm&lt;/font&gt;" style="edgeLabel;html=1;align=center;verticalAlign=middle;resizable=0;points=[];fontFamily=Lucida Console;" parent="FTkBiSrHJ2rmspxLcCRB-125" vertex="1" connectable="0">
          <mxGeometry x="-0.257" relative="1" as="geometry">
            <mxPoint x="-12" y="-300" as="offset" />
          </mxGeometry>
        </mxCell>
        <mxCell id="FTkBiSrHJ2rmspxLcCRB-130" value="regSrc" style="text;html=1;align=left;verticalAlign=bottom;whiteSpace=wrap;rounded=0;fontFamily=Lucida Console;horizontal=0;" parent="1" vertex="1">
          <mxGeometry x="340" y="-450" width="10" height="50" as="geometry" />
        </mxCell>
        <mxCell id="FTkBiSrHJ2rmspxLcCRB-149" style="edgeStyle=orthogonalEdgeStyle;rounded=0;orthogonalLoop=1;jettySize=auto;html=1;exitX=0;exitY=1;exitDx=0;exitDy=0;entryX=0.5;entryY=0;entryDx=0;entryDy=0;jumpStyle=arc;fontFamily=Lucida Console;" parent="1" source="FTkBiSrHJ2rmspxLcCRB-148" target="FTkBiSrHJ2rmspxLcCRB-25" edge="1">
          <mxGeometry relative="1" as="geometry">
            <Array as="points">
              <mxPoint x="420" y="-280" />
              <mxPoint x="740" y="-280" />
            </Array>
          </mxGeometry>
        </mxCell>
        <mxCell id="FTkBiSrHJ2rmspxLcCRB-148" value="aluSrc" style="text;html=1;align=left;verticalAlign=bottom;whiteSpace=wrap;rounded=0;fontFamily=Lucida Console;horizontal=0;" parent="1" vertex="1">
          <mxGeometry x="420" y="-450" width="10" height="50" as="geometry" />
        </mxCell>
        <mxCell id="FTkBiSrHJ2rmspxLcCRB-151" value="regFrom" style="text;html=1;align=left;verticalAlign=bottom;whiteSpace=wrap;rounded=0;fontFamily=Lucida Console;horizontal=0;" parent="1" vertex="1">
          <mxGeometry x="580" y="-450" width="10" height="50" as="geometry" />
        </mxCell>
        <mxCell id="FTkBiSrHJ2rmspxLcCRB-152" style="edgeStyle=orthogonalEdgeStyle;rounded=0;orthogonalLoop=1;jettySize=auto;html=1;exitX=0.63;exitY=1;exitDx=0;exitDy=0;exitPerimeter=0;entryX=0.5;entryY=0;entryDx=0;entryDy=20;entryPerimeter=0;jumpStyle=arc;fontFamily=Lucida Console;" parent="1" source="FTkBiSrHJ2rmspxLcCRB-117" target="FTkBiSrHJ2rmspxLcCRB-19" edge="1">
          <mxGeometry relative="1" as="geometry">
            <Array as="points">
              <mxPoint x="502" y="-320" />
              <mxPoint x="840" y="-320" />
            </Array>
          </mxGeometry>
        </mxCell>
        <mxCell id="FTkBiSrHJ2rmspxLcCRB-153" value="aluOp" style="text;html=1;align=left;verticalAlign=bottom;whiteSpace=wrap;rounded=0;fontFamily=Lucida Console;horizontal=0;" parent="1" vertex="1">
          <mxGeometry x="500" y="-450" width="10" height="50" as="geometry" />
        </mxCell>
        <mxCell id="FTkBiSrHJ2rmspxLcCRB-154" style="edgeStyle=orthogonalEdgeStyle;rounded=0;orthogonalLoop=1;jettySize=auto;html=1;exitX=0.5;exitY=1;exitDx=0;exitDy=0;exitPerimeter=0;jumpStyle=arc;entryX=0.5;entryY=0;entryDx=0;entryDy=0;entryPerimeter=0;fontFamily=Lucida Console;" parent="1" source="FTkBiSrHJ2rmspxLcCRB-117" target="UOHA7woj6OvB0M2nep7R-136" edge="1">
          <mxGeometry relative="1" as="geometry">
            <mxPoint x="560" y="-220" as="targetPoint" />
            <Array as="points">
              <mxPoint x="460" y="-300" />
              <mxPoint x="560" y="-300" />
            </Array>
          </mxGeometry>
        </mxCell>
        <mxCell id="FTkBiSrHJ2rmspxLcCRB-155" value="regWrite" style="text;html=1;align=left;verticalAlign=bottom;whiteSpace=wrap;rounded=0;fontFamily=Lucida Console;horizontal=0;" parent="1" vertex="1">
          <mxGeometry x="460" y="-450" width="10" height="50" as="geometry" />
        </mxCell>
        <mxCell id="FTkBiSrHJ2rmspxLcCRB-157" value="memWrite" style="text;html=1;align=left;verticalAlign=bottom;whiteSpace=wrap;rounded=0;fontFamily=Lucida Console;horizontal=0;" parent="1" vertex="1">
          <mxGeometry x="540" y="-450" width="10" height="50" as="geometry" />
        </mxCell>
        <mxCell id="FTkBiSrHJ2rmspxLcCRB-160" style="edgeStyle=orthogonalEdgeStyle;rounded=0;orthogonalLoop=1;jettySize=auto;html=1;exitX=0.13;exitY=0;exitDx=0;exitDy=0;exitPerimeter=0;entryX=0.5;entryY=0;entryDx=0;entryDy=0;jumpStyle=arc;fontFamily=Lucida Console;" parent="1" source="FTkBiSrHJ2rmspxLcCRB-117" target="FTkBiSrHJ2rmspxLcCRB-120" edge="1">
          <mxGeometry relative="1" as="geometry" />
        </mxCell>
        <mxCell id="FTkBiSrHJ2rmspxLcCRB-161" value="regSrc" style="text;html=1;align=center;verticalAlign=middle;whiteSpace=wrap;rounded=0;fontFamily=Lucida Console;horizontal=1;" parent="1" vertex="1">
          <mxGeometry x="320" y="-479" width="50" height="10" as="geometry" />
        </mxCell>
        <mxCell id="FTkBiSrHJ2rmspxLcCRB-164" value="npcOp" style="text;html=1;align=right;verticalAlign=bottom;whiteSpace=wrap;rounded=0;fontFamily=Lucida Console;horizontal=1;" parent="1" vertex="1">
          <mxGeometry x="570" y="-460" width="50" height="10" as="geometry" />
        </mxCell>
        <mxCell id="n8QdvBFhg09HrveP-W7Y-2" style="edgeStyle=orthogonalEdgeStyle;rounded=0;orthogonalLoop=1;jettySize=auto;html=1;exitX=1;exitY=0;exitDx=0;exitDy=0;entryX=0.75;entryY=1;entryDx=0;entryDy=0;entryPerimeter=0;jumpStyle=arc;fontFamily=Lucida Console;" edge="1" parent="1" source="FTkBiSrHJ2rmspxLcCRB-164" target="FTkBiSrHJ2rmspxLcCRB-127">
          <mxGeometry relative="1" as="geometry">
            <Array as="points">
              <mxPoint x="920" y="-460" />
            </Array>
          </mxGeometry>
        </mxCell>
        <mxCell id="n8QdvBFhg09HrveP-W7Y-3" style="edgeStyle=orthogonalEdgeStyle;rounded=0;orthogonalLoop=1;jettySize=auto;html=1;exitX=1;exitY=0.25;exitDx=0;exitDy=20;exitPerimeter=0;entryX=0.5;entryY=1;entryDx=200;entryDy=0;entryPerimeter=0;fontFamily=Lucida Console;" edge="1" parent="1" source="FTkBiSrHJ2rmspxLcCRB-19" target="FTkBiSrHJ2rmspxLcCRB-127">
          <mxGeometry relative="1" as="geometry" />
        </mxCell>
        <mxCell id="n8QdvBFhg09HrveP-W7Y-6" style="edgeStyle=orthogonalEdgeStyle;rounded=0;orthogonalLoop=1;jettySize=auto;html=1;exitX=1;exitY=0.5;exitDx=0;exitDy=0;entryX=0;entryY=0.6;entryDx=0;entryDy=0;entryPerimeter=0;fontFamily=Lucida Console;" edge="1" parent="1" source="FTkBiSrHJ2rmspxLcCRB-7" target="UOHA7woj6OvB0M2nep7R-136">
          <mxGeometry relative="1" as="geometry" />
        </mxCell>
        <mxCell id="n8QdvBFhg09HrveP-W7Y-11" style="edgeStyle=orthogonalEdgeStyle;rounded=0;orthogonalLoop=1;jettySize=auto;html=1;exitX=0.5;exitY=1;exitDx=0;exitDy=0;entryX=0.5;entryY=0;entryDx=0;entryDy=0;fontFamily=Lucida Console;" edge="1" parent="1" source="n8QdvBFhg09HrveP-W7Y-9" target="UOHA7woj6OvB0M2nep7R-135">
          <mxGeometry relative="1" as="geometry" />
        </mxCell>
      </root>
    </mxGraphModel>
  </diagram>
</mxfile>
